# xmcd CD database file
#
# Track frame offsets:
#	150
#	21408
#	44686
#	66933
#	88428
#	102733
#	114810
#	128586
#	141429
#	155344
#	191537
#	205885
#	219829
#	231544
#	245139
#	258582
#	272998
#	285492
#
# Disc length: 3981 seconds
#
# Revision: 0
# Processed by: cddbd v1.4PL0 Copyright (c) Steve Scherf et al.
# Submitted via: CDex 1.50beta10
#
DISCID=200f8b12
DTITLE=Dexter Gordon - Blowing the Blues Away
DYEAR=1900
DGENRE=Jazz
TTITLE0=Dexter Gordon - I've found a new baby
TTITLE1=Dexter Gordon - Rosetta
TTITLE2=Dexter Gordon - Sweet Lorraine
TTITLE3=Dexter Gordon - Blowed and Gone
TTITLE4=Dexter Gordon - Blowing the Blues Away
TTITLE5=Dexter Gordon - Groovin' High
TTITLE6=Dexter Gordon - Blue n' Boogie
TTITLE7=Dexter Gordon - Lonesome Lover Blues
TTITLE8=Dexter Gordon - Last Night
TTITLE9=Dexter Gordon - Honeysuckle Rose
TTITLE10=Dexter Gordon - Takin' Off
TTITLE11=Dexter Gordon - If I had you
TTITLE12=Dexter Gordon - The Street Beat
TTITLE13=Dexter Gordon - Blow Mr Dexter
TTITLE14=Dexter Gordon - Dexter's Deck
TTITLE15=Dexter Gordon - Dexter's Cuttin' Out
TTITLE16=Dexter Gordon - Dexter's Minor Mad
TTITLE17=Dexter Gordon - Lookin for a Boy
EXTD=
EXTT0=
EXTT1=
EXTT2=
EXTT3=
EXTT4=
EXTT5=
EXTT6=
EXTT7=
EXTT8=
EXTT9=
EXTT10=
EXTT11=
EXTT12=
EXTT13=
EXTT14=
EXTT15=
EXTT16=
EXTT17=
PLAYORDER=
